<svg xmlns="http://www.w3.org/2000/svg" viewBox="0 0 280 420"><defs><linearGradient id="g" x2="0" y2="1"><stop stop-color="#f8f5df" stop-opacity=".98"/><stop offset="1" stop-color="#8fb8c0" stop-opacity=".35"/></linearGradient></defs><rect width="280" height="420" fill="none"/><ellipse cx="140" cy="390" rx="74" ry="14" fill="#000" opacity=".25"/><path d="M74 388q8-137 66-174 58 37 66 174z" fill="url(#g)" opacity=".82"/><circle cx="140" cy="130" r="47" fill="#eef0dc" opacity=".92"/><path d="M96 126q7-64 44-78 37 14 44 78-21-19-44-11-23-8-44 11" fill="#8a8f8d" opacity=".9"/><circle cx="121" cy="137" r="5" fill="#4e6769"/><circle cx="159" cy="137" r="5" fill="#4e6769"/><path d="M125 168q15 8 30 0" fill="none" stroke="#668083" stroke-width="5" opacity=".8"/><path d="M82 240h116M75 292h130M69 345h142" stroke="#dce9df" stroke-width="5" opacity=".55"/></svg>